<svg width="500" height="500" enable-background="new 0 0 1100 740" version="1.1" viewBox="0 0 500 500" xmlns="http://www.w3.org/2000/svg">
  <rect width="1100" height="740" display="none" fill="#fff"/>
  <g transform="translate(-295.78 -128.25)">
    <path d="m672.4 389.5h-0.5 0.5z" fill="#a71e22"/>
    <path d="m672.4 389.5h-0.5 0.5z" fill="#9f1c20"/>
    <path d="m475.5 302.3 0.1 0.2zm16.3-4.7c-0.1 0.1-0.2 0.3-0.3 0.4s-0.2 0.2-0.2 0.4c-0.2 0.3-0.3 0.6-0.4 0.9 0 0 0 0.1-0.1 0.1-0.6 1.5-0.5 3-0.4 3.9 0.2-0.2 0.3-0.4 0.5-0.5l1.5-1.5 3.9-3.6c0.5-0.4 1-0.9 1.5-1.3 0.4-0.4 0.8-0.7 1.3-1 1.9-1.5 3.8-2.9 5.8-4.2 0.7-0.5 1.4-0.9 2.1-1.3-7.4 2.1-12.8 4.7-15.2 7.7zm-68 92.2 0.1 0.2z" fill="#c12026"/>
    <path d="m387.9 496.6 0.1 0.1z" fill="#b41f24"/>
    <g fill="#ad1f23">
      <path d="m677.3 376.5c-3.7-1.6-7.4-3.2-9.4-7.1-0.2-10.6-2.7-18-5-22.7-4-8.4-8.1-10.6-8.5-17.8-0.5-7.5 3.2-15.2 3.7-16.2 1-2 3.2-6.9 4.8-13 1.1-4.2-1-6.9-5.3-7.1-2.9-0.2-5.9-0.1-8.6 0.6-9.7 2.3-19.1 2.6-27.9-2.8-0.3-0.2-0.5-0.3-0.8-0.5-0.5-0.3-0.9-0.6-1.4-0.9-4.9-3.8-9.3-8-11.9-13.8-3-5-3-10.5-2.7-16.1 0.2-6.7 4.6-11.6 7.7-16.9 6.1-10.5 13-20.6 19.4-31 2.8-4.5 5.2-9.3 7.3-14.2 3.6-8.4 5.2-17 0.1-25.6l-0.1-0.1c-0.4-0.3-0.7-0.7-1.1-1-6.1-3.8-12.7-3.4-17.1 1.7-2.9 3.4-6.1 7.4-7.1 11.6-2.8 11.3-4.5 22.8-6.5 34.2-1.5 8.6-2.3 17.3-4.2 25.8-2.3 10.3-6.8 19.4-16.4 25-0.4 0.3-1 0.2-1.7 0.3-8.6 0.4-11-13.4-19.3-14.9-5.3-1-5.4 4.4-16.6 7.2-9.6 2.4-18.5 0.7-20.7-2-1-1.2-2-1.7-3.5-3.4-1.7-1.8-3.5-2-5.7-0.9-4 1.9-5.6 5.3-5.8 9.6-0.2 4.8-2.3 8.6-7 10.2-4.5 1.5-8.2-0.3-11.3-3.6-1.2-1.3-2.4-2.6-3.2-4.1-3.6-6.6-7.3-13.2-10.4-20.1-3.8-8.2-6.6-16.9-10.7-25-1.8-3.5-5.5-6-8.4-9-0.3-0.1-0.6-0.2-0.9-0.2h-2.4c-2.9 0.9-4.2 3-3.7 5.9 0.7 3.6 1.5 7.3 3 10.6 4 9.1 9.9 17 16.6 24.4 3.7 4.1 7.4 8.4 10.2 13.1 7.4 12.4 4.1 26.1-7.8 34.7l-0.1 0.1-1.5 1.2-2.1 1.5c-8.9 9.2-20.2 13.7-32.2 17.3-6.4 1.9-12.6 4.6-18.9 6.9-0.4 0.3-0.8 0.7-1.2 1l-0.1 0.1c-3.6 6.5-2.8 11 3.1 15.8 1.1 0.9 2.2 1.7 3.3 2.6 9.6 6.9 11.5 16.5 9.2 27.3-0.8 3.6-2.5 6.9-6.3 8.5-1.8 1.7-3.6 3.4-5.4 5-0.4 0.5-0.9 1-1.3 1.5-0.4 1-0.8 1.9-1.1 2.9-1.6 4.2-0.5 7.1 3.6 9.2 3.5 1.8 6.9 3.6 10.4 5.3 10.3 8.6 10 27.4-0.5 35.5-2.2 2.2-4 5-6.6 6.5-7.1 4-14.1 8.2-21.7 10.8-12.7 4.4-25.9 7.6-38.7 11.5-7.6 2.3-14.9 5.4-20.1 11.8-0.5 1.8-1.3 3.5-1.6 5.3-1.1 8.6 3.8 14.6 12.5 15.6 7.6 0.8 14.8-0.8 21.7-4 0.7-0.3 1.5-0.6 2.2-0.8 1-0.7 1.9-1.4 2.8-2.1l1.2-0.9c0.3-0.2 0.5-0.5 0.8-0.7 3.1-2.9 6.3-5.8 9.4-8.8 10.8-10.5 21.6-21.1 32.4-31.6 0.3-0.2 0.6-0.5 0.9-0.7 0.4-0.3 0.7-0.6 1.1-1 4.4-5 10.1-7.6 16.7-8 6.4-0.3 9.6 3.5 11.5 9 0.2 0.7 0.4 1.5 0.5 2.2 0.1 0.5 0.3 1 0.4 1.4 1.6 5.4 5.1 9.2 10.4 10.7 5.8 1.7 9.3 5.3 11.1 10.9 0.3 4.6-0.3 9-3.5 12.7l-2.4 3.3c-3.7 4.9-8.4 9.2-10.2 15.4 0.1 1.8-0.1 3.7 0.4 5.5 1.4 5.6 4.9 6.9 11.1 4.1l0.1-0.1c0.3-0.3 0.6-0.7 1-1 4.2-5.2 5.1-11.5 6-17.9 0.7-4.8 2-9.5 3-14.3 1.8-5.5 4.7-7.3 9.9-5.5 5.2 1.7 9.7 4 13 7.7 5.6-15.7 44.5-6.3 94.7-38.2 46.5-29.6 54.4-64.1 74.6-70.4 0.9-0.5 2-0.9 3-1.2 0.4-0.2 0.8-0.3 1.6-0.6-2.7-1.4-5.3-2.2-7.8-3.2zm-62.3-189.7c0-2.5 8.1-12.5 10.6-13.2 0.1 0 0.3 0.3 0.4 0.5 2.3-0.1 4.6-0.3 6.8-0.4 0.6-0.4 1.3-0.9 2-1.4 1.4 3.2 3.4 6 3.9 9.1 0.4 2.6-0.4 5.6-1.4 8.1-2.6 6.7-4.6 13.8-9.5 19.5-1.8 2-3.1 2.2-4.4 0.3-2.9-4.3-5.8-8.7-7.9-13.4-1-2.6-0.5-6-0.5-9.1zm-235 308c-5.1 3-10.4 4.9-16.4 4.8-7.5-0.1-12.7-8-9.5-14.9 0.8-1.7 2.9-3.2 4.7-3.8 2.5-0.8 5.3-1.1 7.9-0.8 8.8 0.8 17.5 1.4 26.3-0.7 1.2-0.3 2.5 0 3.7 0 0.2 0.3 0.3 0.7 0.4 1-5.3 5.1-10.5 10.5-17.1 14.4z"/>
      <path d="m396.7 479.3c0.2 0.3 0.3 0.7 0.4 1-5.4 5.2-10.5 10.5-17.1 14.4-5.1 3-10.4 4.9-16.4 4.8-7.5-0.1-12.7-8-9.5-14.9 0.8-1.7 2.9-3.2 4.7-3.8 2.5-0.8 5.3-1.1 7.9-0.8 8.8 0.8 17.5 1.4 26.3-0.7 1.2-0.2 2.5 0 3.7 0z"/>
      <path d="m637.4 189.5c-2.6 6.7-4.6 13.8-9.5 19.5-1.8 2-3.1 2.2-4.4 0.3-2.9-4.3-5.8-8.7-7.9-13.4-1.1-2.7-0.6-6.1-0.6-9.2 0-2.5 8.1-12.5 10.6-13.2 0.1 0 0.3 0.3 0.4 0.5 2.3-0.1 4.6-0.3 6.8-0.4 0.6-0.4 1.3-0.9 2-1.4 1.4 3.2 3.4 6 3.9 9.1 0.5 2.7-0.3 5.7-1.3 8.2z"/>
      <path d="m637.4 189.5c-2.6 6.7-4.6 13.8-9.5 19.5-1.8 2-3.1 2.2-4.4 0.3-2.9-4.3-5.8-8.7-7.9-13.4-1.1-2.7-0.6-6.1-0.6-9.2 0-2.5 8.1-12.5 10.6-13.2 0.1 0 0.3 0.3 0.4 0.5 2.3-0.1 4.6-0.3 6.8-0.4 0.6-0.4 1.3-0.9 2-1.4 1.4 3.2 3.4 6 3.9 9.1 0.5 2.7-0.3 5.7-1.3 8.2z"/>
      <path d="m397.1 480.4c-5.4 5.2-10.5 10.5-17.1 14.4-5.1 3-10.4 4.9-16.4 4.8-7.5-0.1-12.7-8-9.5-14.9 0.8-1.7 2.9-3.2 4.7-3.8 2.5-0.8 5.3-1.1 7.9-0.8 8.8 0.8 17.5 1.4 26.3-0.7 1.2-0.3 2.5 0 3.7 0 0.2 0.3 0.3 0.6 0.4 1z"/>
    </g>
    <path d="m620.8 303.9c-0.3-0.2-0.6-0.3-0.8-0.5 0 0-0.1 0-0.1-0.1-0.6-0.4-1.2-0.7-1.7-1.1 0.8-0.8 1.5-1.7 2.3-2.5 0 0 0-0.1 0.1-0.1 0.5 1.7 0.5 3.1 0.2 4.3z" fill="#b41f24"/>
    <path d="m656.9 329.4z" fill="#b41f24"/>
    <path d="m620.5 299.8c-0.8 0.9-1.6 1.8-2.3 2.6-1.9-0.5-4-0.5-5.6-1.5l-1.5-0.9c-3.8-2.3-7.5-4.7-11.3-7-0.8-0.5-1.6-1-2.5-1.5-2.3-1.5-4.7-3-7-4.4 15.4 2.5 26.4 6.6 29.5 11.4 0.1 0.2 0.2 0.3 0.3 0.5v0.1c0.2 0 0.3 0.4 0.4 0.7z" fill="#bb2025"/>
    <path d="m633.1 273.8c-0.2-1.5-0.2-2.7-0.5-3.8-3.2-10.6 6.4-16.3 14.5-15.7 7.9 0.6 13.5 6.2 13.6 13.3 0.1 7.6-6 14.2-13.5 15.3-3.4 0.5-6.7 1.8-10.1 2.4-1.5 0.3-3.4 0.5-4.5-0.3-0.8-0.6-0.8-2.7-0.7-4.1 0.2-2.4 0.8-4.9 1.2-7.1zm20.7-14c-2.8-0.6-5.6-1.1-8.3-1.7-1-0.3-2.2-1-3-0.7-2.2 0.9-4.3 2.2-7.2 3.7 0.9 2.2 1.5 4.8 2.9 6.7 2 2.6 4.5 5 7.1 7 4 3.2 8.3 2.2 10.1-2.6 1.1-2.9 1-6.3 0.9-9.4 0-0.9-1.6-1.9-2.5-3z" fill="#b41f24"/>
    <path d="m369.8 309.3c4.3-3.1 8.5-2.1 12.3 0.6 7.1 5 14 10.4 20.9 15.6 0.7 0.5 1.2 1.3 2.1 2.4-1.3 0.5-2.2 0.9-3.1 1.2-0.5 0.1-0.9 0.1-1.4 0.2-0.4 0-0.8 0.1-1.2 0.1-3.4-0.6-6.9-1.2-10.3-2-5.9-1.4-11.9-2.4-17.5-4.5-5.3-1.9-6.3-6.2-3.6-11.1 0.6-0.8 1.2-1.6 1.8-2.5z" fill="#c12026"/>
    <path d="m656.8 329.4c-0.2-0.1-0.3-0.2-0.4-0.2 0.1-0.1 0.1-0.2 0.2-0.3 0.2 0.1 0.3 0.3 0.2 0.5 0.1 0 0.1 0 0 0z" fill="#a71e22"/>
    <g fill="#ca2026">
      <path d="m561.1 291.3c-0.8-0.1-1.6-0.1-2.3-0.2-0.5 0-0.9-0.1-1.4-0.1-0.6 0-1.2 0-1.8-0.1h-2.4c-1.1 0-2.1 0-3.2 0.1-0.5 0-1.1 0-1.6 0.1h-0.2c-0.5 0-0.9 0-1.4 0.1-0.4 0-0.9 0.1-1.3 0.1h-0.5c-0.2 0-0.4 0-0.7 0.1h-0.3c-0.4 0-0.8 0.1-1.2 0.1-0.2 0-0.3 0-0.5 0.1h-0.2c-0.6 0.1-1.2 0.1-1.7 0.2h-0.2c4.9-0.3 10.1-0.5 15.4-0.5 2.8 0 5.5 0 8.1 0.1-0.9 0.1-1.7 0-2.6-0.1zm0 0c-0.8-0.1-1.6-0.1-2.3-0.2-0.5 0-0.9-0.1-1.4-0.1-0.6 0-1.2 0-1.8-0.1h-2.4c-1.1 0-2.1 0-3.2 0.1-0.5 0-1.1 0-1.6 0.1h-0.2c-0.5 0-0.9 0-1.4 0.1-0.4 0-0.9 0.1-1.3 0.1h-0.5c-0.2 0-0.4 0-0.7 0.1h-0.3c-0.4 0-0.8 0.1-1.2 0.1-0.2 0-0.3 0-0.5 0.1h-0.2c-0.6 0.1-1.2 0.1-1.7 0.2h-0.2c4.9-0.3 10.1-0.5 15.4-0.5 2.8 0 5.5 0 8.1 0.1-0.9 0.1-1.7 0-2.6-0.1zm0 0c-0.8-0.1-1.6-0.1-2.3-0.2-0.5 0-0.9-0.1-1.4-0.1-0.6 0-1.2 0-1.8-0.1h-2.4c-1.1 0-2.1 0-3.2 0.1-0.5 0-1.1 0-1.6 0.1h-0.2c-0.5 0-0.9 0-1.4 0.1-0.4 0-0.9 0.1-1.3 0.1h-0.5c-0.2 0-0.4 0-0.7 0.1h-0.3c-0.4 0-0.8 0.1-1.2 0.1-0.2 0-0.3 0-0.5 0.1h-0.2c-0.6 0.1-1.2 0.1-1.7 0.2h-0.2c4.9-0.3 10.1-0.5 15.4-0.5 2.8 0 5.5 0 8.1 0.1-0.9 0.1-1.7 0-2.6-0.1zm59.7 12.6c-0.3-0.1-0.5-0.3-0.8-0.4 0 0-0.1 0-0.1-0.1-0.6-0.4-1.2-0.7-1.7-1.1-1.9-0.5-4-0.5-5.6-1.5l-1.5-0.9c-3.8-2.3-7.5-4.7-11.3-7-0.8-0.5-1.6-1-2.5-1.5-2.3-1.5-4.7-3-7-4.4-5.2-0.8-10.9-1.5-17-1.9l0.6 0.3c0.5 0.2 1 0.5 1.5 0.8s1 0.5 1.4 0.8c0.3 0.2 0.6 0.3 0.9 0.5s0.6 0.4 0.9 0.5c0.2 0.1 0.3 0.2 0.5 0.3s0.3 0.2 0.4 0.3c0.1 0 0.1 0.1 0.2 0.1 0.5 0.3 0.9 0.6 1.4 0.9 0.4 0.3 0.8 0.5 1.1 0.8 0.1 0 0.1 0.1 0.2 0.1l0.2 0.2c0.1 0.1 0.2 0.2 0.2 0.3 0.4 0.6 0.6 1.3 0.8 2 14.4 1.8 24.6 4.9 27 8.5-3.7 5.7-26.9 10-55 10-21.2 0-39.6-2.5-49-6.1l-3 1.8c-0.3 0.2-0.6 0.4-0.9 0.5-0.6 0.4-1.2 0.7-1.8 1.1-0.4 0.3-0.9 0.5-1.3 0.8-1 0.6-1.9 1.2-2.9 1.7 10.4 5.6 32.8 9.5 58.8 9.5 34.1 0 62-6.7 64.8-15.2 0.2-0.5 0.4-1.1 0.5-1.7zm-57.1-12.4c-0.9-0.1-1.7-0.2-2.6-0.2-0.8-0.1-1.6-0.1-2.3-0.2-0.5 0-0.9-0.1-1.4-0.1-0.6 0-1.2 0-1.8-0.1h-2.4c-1.1 0-2.1 0-3.2 0.1-0.5 0-1.1 0-1.6 0.1h-0.2c-0.5 0-0.9 0-1.4 0.1-0.4 0-0.9 0.1-1.3 0.1h-0.5c-0.2 0-0.4 0-0.7 0.1h-0.3c-0.4 0-0.8 0.1-1.2 0.1-0.2 0-0.3 0-0.5 0.1h-0.2c-0.6 0.1-1.2 0.1-1.7 0.2h-0.2c4.9-0.3 10.1-0.5 15.4-0.5 2.7 0.1 5.4 0.2 8.1 0.2zm-2.6-0.2c-0.8-0.1-1.6-0.1-2.3-0.2-0.5 0-0.9-0.1-1.4-0.1-0.6 0-1.2 0-1.8-0.1h-2.4c-1.1 0-2.1 0-3.2 0.1-0.5 0-1.1 0-1.6 0.1h-0.2c-0.5 0-0.9 0-1.4 0.1-0.4 0-0.9 0.1-1.3 0.1h-0.5c-0.2 0-0.4 0-0.7 0.1h-0.3c-0.4 0-0.8 0.1-1.2 0.1-0.2 0-0.3 0-0.5 0.1h-0.2c-0.6 0.1-1.2 0.1-1.7 0.2h-0.2c4.9-0.3 10.1-0.5 15.4-0.5 2.8 0 5.5 0 8.1 0.1-0.9 0.1-1.7 0-2.6-0.1zm0 0c-0.8-0.1-1.6-0.1-2.3-0.2-0.5 0-0.9-0.1-1.4-0.1-0.6 0-1.2 0-1.8-0.1h-2.4c-1.1 0-2.1 0-3.2 0.1-0.5 0-1.1 0-1.6 0.1h-0.2c-0.5 0-0.9 0-1.4 0.1-0.4 0-0.9 0.1-1.3 0.1h-0.5c-0.2 0-0.4 0-0.7 0.1h-0.3c-0.4 0-0.8 0.1-1.2 0.1-0.2 0-0.3 0-0.5 0.1h-0.2c-0.6 0.1-1.2 0.1-1.7 0.2h-0.2c4.9-0.3 10.1-0.5 15.4-0.5 2.8 0 5.5 0 8.1 0.1-0.9 0.1-1.7 0-2.6-0.1zm-53.9-1.5c-0.1 0-0.1 0 0 0-0.7 0.4-1.5 0.9-2.2 1.3-2 1.3-3.9 2.7-5.8 4.2-0.4 0.3-0.9 0.7-1.3 1-0.5 0.4-1 0.8-1.5 1.3-1.4 1.1-2.6 2.3-3.9 3.6l-2 2c0.1 0.5 0.1 0.8 0.1 0.8 0 1.6 0.9 3.2 2.6 4.7l0.2-0.2c0.3-0.3 0.6-0.7 0.9-1 0.2-0.2 0.4-0.4 0.6-0.7 0.1-0.2 0.3-0.3 0.4-0.4s0.3-0.3 0.5-0.4c0.6-0.6 1.2-1.1 1.8-1.6l0.1-0.1c0.2-0.2 0.4-0.4 0.6-0.5 0.2-0.2 0.4-0.4 0.6-0.5 0.3-0.3 0.7-0.6 1.1-0.9 0.1-0.1 0.2-0.1 0.2-0.2l0.1-0.1c0.1-0.1 0.2-0.2 0.3-0.2 0.1-0.1 0.2-0.1 0.2-0.2l0.2-0.2 1.2-0.9c1.2-0.9 2.5-1.8 3.8-2.7 0.2-0.1 0.3-0.2 0.5-0.3 0.1-0.1 0.1-0.1 0.2-0.1 0.7-0.5 1.4-0.9 2.1-1.4 0.9-0.6 1.9-1.2 2.8-1.8 0.7-0.5 1.4-0.9 2.2-1.4 0.5-0.3 1.1-0.6 1.6-1 0.8-0.5 1.5-0.9 2.3-1.3 0 0 0.1 0 0.1-0.1 0.2-0.1 0.5-0.3 0.7-0.4 0.5-0.3 1-0.5 1.4-0.8 0.5-0.2 1-0.5 1.4-0.7 0.3-0.1 0.5-0.3 0.8-0.4 0.3-0.2 0.6-0.3 0.9-0.4s0.6-0.3 0.9-0.4c1.2-0.5 2.3-1 3.5-1.5-7.6 1-14.5 2.3-20.2 3.9z"/>
      <path d="m590.3 286.9c-5.2-0.8-10.9-1.5-17-1.9-5.6-0.4-11.6-0.6-17.7-0.6-10 0-19.5 0.6-28 1.6-7.8 0.9-14.7 2.3-20.4 3.9 0.2-0.1 0.3-0.2 0.5-0.3 7.7-4.5 15.5-9 23.7-12.3 9.7-3.8 19.9-5.4 30.6-3.4 6.9 1.3 12.8 4.5 18.7 7.9 1.7 1 3.6 1.6 5.4 2.4 1.3 0.9 2.8 1.8 4.2 2.7z"/>
      <path d="m654.2 365c-2 3.1-5.7 5.4-9.1 7.1-5 2.4-10.5 3.9-15.8 5.8-2 0.4-4.1 0.8-6.1 1.2h-45v-52.8h-45.2v52.8h-52.8v45.3h11.9c-3.1 2.2-6.1 4.4-9.3 6.6-3.5 2.4-7.4 4.6-12.2 4.4-3.9-0.2-6.9-1.5-8.9-4.6-4.5-7.2-8.6-14.7-12.9-22-0.5-0.9-0.9-1.9-1.4-2.8v-1.4c-0.2-0.9-0.2-1.9-0.7-2.7-3.2-5.3-1.9-10.8-0.8-16.2 1-4.7 2.6-9.3 3.6-14 1.4-6.1-0.5-11.8-3.1-17.3-1.4-3.1-3-6-4.3-9.2-2.2-5.5 2.7-15.4 9.5-17.6 7.1-2.4 14.1-5.2 20.8-8.5 4.9-2.4 9.1-6 12.8-10.4 1.5-1.8 3.2-3.6 4.8-5.3 0.1 0.5 0.1 0.8 0.1 0.8 0 1.6 0.9 3.2 2.6 4.7 1 0.9 2.2 1.7 3.7 2.5 10.4 5.6 32.8 9.5 58.8 9.5 34.1 0 62-6.7 64.8-15.2 0.2-0.4 0.4-1 0.5-1.6 0.3 0.1 0.6 0.3 0.9 0.4 6 2 12.1 3.8 18.1 5.9 3.8 1.3 4.8 4.2 4 8.2-1.6 8.9-0.8 17.3 6.5 23.9 1 1.4 1.9 2.9 2.9 4.3 4.4 5.7 5.2 12.2 1.3 18.2z"/>
      <path d="m637.4 189.5c-2.6 6.7-4.6 13.8-9.5 19.5-1.8 2-3.1 2.2-4.4 0.3-2.9-4.3-5.8-8.7-7.9-13.4-1.1-2.7-0.6-6.1-0.6-9.2 0-2.5 8.1-12.5 10.6-13.2 0.1 0 0.3 0.3 0.4 0.5-1.1 1-2.2 2.3-0.2 3.2 2.4 1 5 1.8 7.5 2 2.3 0.2 2.9-1.6 1.7-3.6-0.5-0.8-1.5-1.4-2.2-2 0.6-0.4 1.3-0.9 2-1.4 1.4 3.2 3.4 6 3.9 9.1 0.5 2.7-0.3 5.7-1.3 8.2z"/>
    </g>
    <path d="m633.4 179.3c-2.6-0.2-5.1-1-7.5-2-2-0.8-0.9-2.2 0.2-3.2 2.3-0.1 4.6-0.3 6.8-0.4 0.8 0.7 1.7 1.2 2.2 2 1.1 2 0.5 3.8-1.7 3.6z" fill="#f3f3f3"/>
    <path d="m396.7 479.3c-1.2 0-2.5-0.2-3.7 0-8.7 2.2-17.5 1.5-26.3 0.7-2.6-0.2-5.4 0-7.9 0.8-1.8 0.6-3.9 2.1-4.7 3.8-3.2 6.9 2 14.8 9.5 14.9 5.9 0.1 11.2-1.8 16.4-4.8 6.6-3.8 11.7-9.2 17.1-14.4-0.1-0.3-0.2-0.6-0.4-1zm-29.9 17.6c-1.1 0.5-2.4 0.6-4.3 1.1-1.7-0.9-3.9-1.9-5.7-3.3-0.6-0.4-0.6-2.2-0.2-3.1 0.3-0.6 1.8-1.3 2.5-1.1 2.7 0.8 5.4 1.8 8 3.1 1.6 1 1.4 2.5-0.3 3.3z" fill="#ca2026"/>
    <path d="m653.8 259.8c0.9 1 2.5 2 2.5 3.1 0.1 3.2 0.2 6.6-0.9 9.4-1.8 4.8-6.1 5.7-10.1 2.6-2.6-2.1-5.1-4.4-7.1-7-1.4-1.9-2-4.5-2.9-6.7 2.9-1.5 5-2.8 7.2-3.7 0.8-0.3 2 0.5 3 0.7-2.8 2.3-2.8 3 0.4 4.3 1.4 0.6 2.8 1.1 4.3 1.3 3.4 0.6 4.3-0.5 3.6-4z" fill="#ca2026"/>
    <path d="m653.8 259.8c0.7 3.5-0.2 4.6-3.6 4-1.5-0.2-2.9-0.7-4.3-1.3-3.2-1.3-3.2-2-0.4-4.3 2.7 0.5 5.5 1.1 8.3 1.6z" fill="#f4f4f4"/>
    <path d="m506.6 305.4-3 1.8c-0.3 0.2-0.6 0.4-0.9 0.5-0.6 0.4-1.2 0.7-1.8 1.1-0.4 0.3-0.9 0.5-1.3 0.8-1 0.6-1.9 1.2-2.9 1.7-1.5-0.8-2.7-1.6-3.7-2.5l0.2-0.2c0.3-0.3 0.6-0.7 0.9-1 0.2-0.2 0.4-0.4 0.6-0.7 0.1-0.2 0.3-0.3 0.4-0.4s0.3-0.3 0.5-0.4c0.6-0.6 1.2-1.1 1.8-1.6l0.1-0.1c0.2-0.2 0.4-0.4 0.6-0.5 0.2-0.2 0.4-0.4 0.6-0.5 0.3-0.3 0.7-0.6 1.1-0.9 0.1-0.1 0.2-0.1 0.2-0.2h0.1c0.1-0.1 0.2-0.2 0.3-0.2 0.1-0.1 0.2-0.1 0.2-0.2 1.1 1.1 3.1 2.4 6 3.5z" fill="#ca2026"/>
    <path d="m583.6 293c-6-0.7-12.6-1.2-19.7-1.5h-0.1-0.1c-0.9-0.1-1.7-0.2-2.6-0.2-0.8-0.1-1.6-0.1-2.3-0.2-0.5 0-0.9-0.1-1.4-0.1-0.6 0-1.2 0-1.8-0.1h-2.4c-1.1 0-2.1 0-3.2 0.1-0.5 0-1.1 0-1.6 0.1h-0.2c-0.5 0-0.9 0-1.4 0.1-0.4 0-0.9 0.1-1.3 0.1h-0.5c-0.2 0-0.4 0-0.7 0.1h-0.3c-0.4 0-0.8 0.1-1.2 0.1-0.2 0-0.3 0-0.5 0.1h-0.2c-0.6 0.1-1.2 0.1-1.7 0.2h-0.2-0.1-0.1c-14.5 0.9-26.6 3-33.5 5.7 0.1-0.1 0.1-0.1 0.2-0.1 0.7-0.5 1.4-0.9 2.1-1.4 0.9-0.6 1.9-1.2 2.8-1.8 0.7-0.5 1.4-0.9 2.2-1.4 0.5-0.3 1.1-0.6 1.6-1 0.8-0.5 1.5-0.9 2.3-1.3 0 0 0.1 0 0.1-0.1 0.2-0.1 0.5-0.3 0.7-0.4 0.5-0.3 1-0.5 1.4-0.8 0.5-0.2 1-0.5 1.4-0.7 0.3-0.1 0.5-0.3 0.8-0.4 0.3-0.2 0.6-0.3 0.9-0.4s0.6-0.3 0.9-0.4c1.2-0.5 2.3-1 3.5-1.5 8.5-1 18-1.6 28-1.6 6.1 0 12.1 0.2 17.7 0.6 0.2 0.1 0.4 0.2 0.7 0.3 0.5 0.2 1 0.5 1.5 0.8s1 0.5 1.4 0.8c0.3 0.2 0.6 0.3 0.9 0.5s0.6 0.4 0.9 0.5c0.2 0.1 0.3 0.2 0.5 0.3s0.3 0.2 0.4 0.3c0.1 0 0.1 0.1 0.2 0.1 0.5 0.3 0.9 0.6 1.4 0.9 0.4 0.3 0.8 0.5 1.1 0.8 0.1 0 0.1 0.1 0.2 0.1l0.2 0.2c0.1 0.1 0.2 0.2 0.2 0.3 0.4 0.9 0.6 1.6 0.9 2.3z" fill="#ca2026"/>
    <path d="m362.5 498c-1.7-0.9-3.9-1.9-5.7-3.3-0.6-0.4-0.6-2.2-0.2-3.1 0.3-0.7 1.8-1.3 2.5-1.1 2.7 0.8 5.4 1.8 8 3.1 1.6 0.8 1.4 2.4-0.2 3.2-1.1 0.6-2.4 0.7-4.4 1.2z" fill="#f3f3f3"/>
    <path d="m700.2 513.5c-0.4 8.2-6.2 12.3-14.1 9.7-2.4-0.8-4.6-2.1-6.8-3.5-8.8-5.8-14.2-14.5-20-23-4.2-6.2-8.9-12.1-13.4-18.1-7-5-14.7-4.8-22.6-3.2-3.7 0.8-6.4 3-7.4 6.6-0.1 0.4-0.2 0.7-0.3 1.1-0.1 0.3-0.1 0.6-0.2 0.9-0.4 2.3-0.6 4.8-1 7.1-0.1 1.2-0.3 2.4-0.4 3.6-0.1 0.6-0.1 1.3-0.2 2-2 4.7-3.7 5.8-8.8 5.6-2.7-0.1-5.3-0.4-8-0.8-3-0.5-4.6 0.6-5.8 3.6-1.4 3.6-3.2 5.7-5.5 6.2-2.1 0.5-3-1.2-7.8-3.1-1.3-0.5-4.7-1.8-8.3-1.9-0.3 0-7.4 0-10.8 3.6-4.3 4.7 0.2 12.4 3.6 36.7 0.6 4.5 1.4 10.9-1.8 17.3-0.7 1.4-3.5 7-7.2 6.8-3.8-0.1-6.2-6.2-6.8-7.9-2.8-7-1.6-13.6-0.7-18 5.3-27.6 7.8-32.7 4.3-37.8-2.6-3.9-7.9-6.8-12.2-6.5-1.7 0.1-5.5 0.9-8.5 3.1-0.3 0.2-0.6 0.4-0.8 0.6-5.1 3.4-9.5 2.2-12.4-3.3-0.2-0.5-0.5-1-0.6-1.6-0.6-4-2.2-7.1-4.4-9.6 5.6-15.7 44.5-6.3 94.7-38.2 46.5-29.6 54.4-64.1 74.6-70.4-3.2 1.7-5.7 4.2-7.9 7.1l-0.6 0.9 0.1 0.2h-0.5 0.5c-0.6 2.7-2 5.4 0.1 8 1 4.2 4.3 6.3 7.7 8.3 2.1 1.2 4.4 2.3 7 3.6-1.2 0.6-1.9 0.9-2.6 1.3-3.5-0.5-7.1-0.7-10.6-1.4-11.4-2.3-18.4 5.1-15.1 16.4 1.3 7 4.9 11.8 12.2 13.6 4.3 1.1 8.4 2.8 12.4 4.7 1.2 0.5 1.6 2.5 2.4 3.9-3.7 2.8-7.8 3.1-11.9 1.5-4.3-1.7-8.4-3.9-12.4-6.3-3.5-2.1-6.8-2.1-10.2-0.2-6.9 3.7-10.3 11.8-8.4 19.9 1 2.7 2.1 5.3 3.1 8 0.6 0.8 1.3 1.6 1.9 2.3l0.1 0.1c7.8 5.1 15.6 10.3 23.5 15.3 6.9 4.4 14.1 8.5 20.8 13.1 4.4 2.9 7.2 7 8 12.1z" fill="#941a1d"/>
    <polygon points="533 477.2 533 424.4 480.2 424.4 480.2 379.1 533 379.1 533 326.3 578.3 326.3 578.3 379.1 631.1 379.1 631.1 424.4 578.3 424.4 578.3 477.2" fill="#fff"/>
    <path d="m561.1 291.3c-0.8-0.1-1.6-0.1-2.3-0.2-0.5 0-0.9-0.1-1.4-0.1-0.6 0-1.2 0-1.8-0.1h-2.4c-1.1 0-2.1 0-3.2 0.1-0.5 0-1.1 0-1.6 0.1h-0.2c-0.5 0-0.9 0-1.4 0.1-0.4 0-0.9 0.1-1.3 0.1h-0.5c-0.2 0-0.4 0-0.7 0.1h-0.3c-0.4 0-0.8 0.1-1.2 0.1-0.2 0-0.3 0-0.5 0.1h-0.2c-0.6 0.1-1.2 0.1-1.7 0.2h-0.2c4.9-0.3 10.1-0.5 15.4-0.5 2.8 0 5.5 0 8.1 0.1-0.9 0.1-1.7 0-2.6-0.1zm0 0c-0.8-0.1-1.6-0.1-2.3-0.2-0.5 0-0.9-0.1-1.4-0.1-0.6 0-1.2 0-1.8-0.1h-2.4c-1.1 0-2.1 0-3.2 0.1-0.5 0-1.1 0-1.6 0.1h-0.2c-0.5 0-0.9 0-1.4 0.1-0.4 0-0.9 0.1-1.3 0.1h-0.5c-0.2 0-0.4 0-0.7 0.1h-0.3c-0.4 0-0.8 0.1-1.2 0.1-0.2 0-0.3 0-0.5 0.1h-0.2c-0.6 0.1-1.2 0.1-1.7 0.2h-0.2c4.9-0.3 10.1-0.5 15.4-0.5 2.8 0 5.5 0 8.1 0.1-0.9 0.1-1.7 0-2.6-0.1zm0 0c-0.8-0.1-1.6-0.1-2.3-0.2-0.5 0-0.9-0.1-1.4-0.1-0.6 0-1.2 0-1.8-0.1h-2.4c-1.1 0-2.1 0-3.2 0.1-0.5 0-1.1 0-1.6 0.1h-0.2c-0.5 0-0.9 0-1.4 0.1-0.4 0-0.9 0.1-1.3 0.1h-0.5c-0.2 0-0.4 0-0.7 0.1h-0.3c-0.4 0-0.8 0.1-1.2 0.1-0.2 0-0.3 0-0.5 0.1h-0.2c-0.6 0.1-1.2 0.1-1.7 0.2h-0.2c4.9-0.3 10.1-0.5 15.4-0.5 2.8 0 5.5 0 8.1 0.1-0.9 0.1-1.7 0-2.6-0.1zm59.4 8.5c-0.1-0.3-0.2-0.6-0.4-0.9v-0.1c-0.1-0.2-0.2-0.3-0.3-0.5 0 0-0.2 1-0.5 2.4-3-3.7-10.9-7-21.9-9.4-5.2-1.1-11.1-2-17.6-2.7-7.5-0.8-15.6-1.2-24.2-1.2-14.1 0-27.2 1.2-37.9 3.1-8.2 1.5-15 3.5-19.7 5.8-0.3 0.1-0.5 0.3-0.8 0.4-2 1.1-3.6 2.2-4.7 3.3l-0.2 0.2 0.6-3.7c-0.4 0.3-0.7 0.6-1 0.9-0.1 0.1-0.2 0.3-0.3 0.4s-0.2 0.2-0.2 0.4c-0.2 0.3-0.3 0.6-0.4 0.9 0 0 0 0.1-0.1 0.1-0.6 1.5-0.5 3-0.4 3.9 0.1 0.5 0.1 0.8 0.1 0.8 0 1.6 0.9 3.2 2.6 4.7 1 0.9 2.2 1.7 3.7 2.5 10.4 5.6 32.8 9.5 58.8 9.5 34.1 0 62-6.7 64.8-15.2 0.2-0.4 0.4-1 0.5-1.6 0.1-1.1 0.1-2.5-0.5-4zm-116.9 7.3c-2.3-1.3-3.6-2.7-3.6-4.1 0-0.3 0.1-0.6 0.2-0.9 0.1-0.2 0.2-0.5 0.3-0.7 0.9-1.4 2.9-2.7 5.9-3.8 6.9-2.7 19-4.8 33.5-5.7h0.1 0.1c4.9-0.3 10.1-0.5 15.4-0.5 2.8 0 5.5 0 8.1 0.1h0.1 0.1c7.1 0.2 13.8 0.7 19.7 1.5 14.4 1.8 24.6 4.9 27 8.5 0.3 0.5 0.5 1 0.5 1.6 0 6.4-24.9 11.6-55.5 11.6-23.7-0.1-43.9-3.2-51.9-7.6zm57.5-15.8c-0.8-0.1-1.6-0.1-2.3-0.2-0.5 0-0.9-0.1-1.4-0.1-0.6 0-1.2 0-1.8-0.1h-2.4c-1.1 0-2.1 0-3.2 0.1-0.5 0-1.1 0-1.6 0.1h-0.2c-0.5 0-0.9 0-1.4 0.1-0.4 0-0.9 0.1-1.3 0.1h-0.5c-0.2 0-0.4 0-0.7 0.1h-0.3c-0.4 0-0.8 0.1-1.2 0.1-0.2 0-0.3 0-0.5 0.1h-0.2c-0.6 0.1-1.2 0.1-1.7 0.2h-0.2c4.9-0.3 10.1-0.5 15.4-0.5 2.8 0 5.5 0 8.1 0.1-0.9 0.1-1.7 0-2.6-0.1zm0 0c-0.8-0.1-1.6-0.1-2.3-0.2-0.5 0-0.9-0.1-1.4-0.1-0.6 0-1.2 0-1.8-0.1h-2.4c-1.1 0-2.1 0-3.2 0.1-0.5 0-1.1 0-1.6 0.1h-0.2c-0.5 0-0.9 0-1.4 0.1-0.4 0-0.9 0.1-1.3 0.1h-0.5c-0.2 0-0.4 0-0.7 0.1h-0.3c-0.4 0-0.8 0.1-1.2 0.1-0.2 0-0.3 0-0.5 0.1h-0.2c-0.6 0.1-1.2 0.1-1.7 0.2h-0.2c4.9-0.3 10.1-0.5 15.4-0.5 2.8 0 5.5 0 8.1 0.1-0.9 0.1-1.7 0-2.6-0.1zm0 0c-0.8-0.1-1.6-0.1-2.3-0.2-0.5 0-0.9-0.1-1.4-0.1-0.6 0-1.2 0-1.8-0.1h-2.4c-1.1 0-2.1 0-3.2 0.1-0.5 0-1.1 0-1.6 0.1h-0.2c-0.5 0-0.9 0-1.4 0.1-0.4 0-0.9 0.1-1.3 0.1h-0.5c-0.2 0-0.4 0-0.7 0.1h-0.3c-0.4 0-0.8 0.1-1.2 0.1-0.2 0-0.3 0-0.5 0.1h-0.2c-0.6 0.1-1.2 0.1-1.7 0.2h-0.2c4.9-0.3 10.1-0.5 15.4-0.5 2.8 0 5.5 0 8.1 0.1-0.9 0.1-1.7 0-2.6-0.1z" fill="#f28e31"/>
    <path d="m620.5 299.8c-0.1-0.3-0.2-0.7-0.4-1v-0.1c-0.1-0.2-0.2-0.3-0.3-0.5-3-4.8-14.1-8.9-29.5-11.4-5.2-0.8-10.9-1.5-17-1.9-5.6-0.4-11.6-0.6-17.7-0.6-10 0-19.5 0.6-28 1.6-7.8 0.9-14.7 2.3-20.4 3.9-7.6 2.1-12.9 4.8-15.3 7.7-0.1 0.1-0.2 0.3-0.3 0.4s-0.2 0.2-0.2 0.4c-0.2 0.3-0.3 0.6-0.4 0.9-0.2 0.6-0.3 1.1-0.3 1.7s0.1 1.2 0.4 1.8c0.6 1.5 2 2.9 4 4.2 1.3 0.9 3 1.7 4.9 2.6 11.4 4.9 32.1 8.1 55.9 8.1 32.7 0 59.7-6.2 64.4-14.2 0.5-0.8 0.7-1.6 0.7-2.5-0.4-0.3-0.4-0.7-0.5-1.1zm-9.9 1.7c-3.7 5.7-26.9 10-55 10-21.2 0-39.6-2.5-49-6.1-2.9-1.1-4.9-2.3-5.9-3.6-0.1-0.1-0.1-0.2-0.2-0.3-0.3-0.5-0.5-1-0.5-1.6 0-3.1 5.8-5.9 15.3-8 10.1-2.2 24.4-3.6 40.2-3.6 9.2 0 17.9 0.5 25.5 1.3 7.3 0.8 13.7 1.9 18.7 3.3 7.1 1.9 11.3 4.4 11.3 7 0 0.5-0.1 1.1-0.4 1.6z" fill="#fff200"/>
    <path d="m610.6 301.5c-3.7 5.7-26.9 10-55 10-21.2 0-39.6-2.5-49-6.1-2.9-1.1-4.9-2.3-5.9-3.6l0.2-0.2 1.2-0.9c1.2-0.9 2.5-1.8 3.8-2.7 0.2-0.1 0.3-0.2 0.5-0.3 6.9-2.7 19-4.8 33.5-5.7h0.1 0.1c4.9-0.3 10.1-0.5 15.4-0.5 2.8 0 5.5 0 8.1 0.1h0.1 0.1c7.1 0.2 13.8 0.7 19.7 1.5 14.5 1.7 24.7 4.8 27.1 8.4z" fill="#ca2026"/>
    <g opacity=".5">
      <path d="m542.3 286s-1.5 0.2-4.2 0.5-6.5 0.9-11.1 1.6-9.9 1.7-15.5 3c-2.8 0.7-5.6 1.5-8.5 2.5-1.4 0.5-2.8 1.1-4.1 1.8-2.4 1.2-4.5 3.7-3.2 6.6 1.4 3.3 5.2 5 8.3 6.2 5.4 2 10.6 3.3 15.1 4.4 4.5 1 8.3 1.7 11 2.1s4.2 0.6 4.2 0.6h-1.1c-0.7 0-1.8-0.1-3.1-0.2-2.7-0.2-6.6-0.6-11.1-1.4-2.3-0.4-4.8-0.9-7.4-1.5s-5.3-1.4-8.1-2.3c-1.4-0.5-2.8-1-4.2-1.6s-2.8-1.3-4.1-2.3-2.5-2.4-2.9-4.2c-0.2-0.9-0.1-1.9 0.2-2.7l0.6-1.2c0.3-0.4 0.6-0.7 0.9-1 1.2-1.2 2.6-2 4-2.7s2.9-1.3 4.3-1.8c2.9-1 5.8-1.8 8.7-2.4 2.8-0.6 5.6-1.1 8.2-1.5s5.1-0.7 7.4-1c4.6-0.5 8.5-0.7 11.2-0.9 3-0.6 4.5-0.6 4.5-0.6z" fill="#fefef8"/>
    </g>
    <g fill="#fff">
      <circle cx="478.5" cy="323.8" r="2.3"/>
      <path d="m458 351.7"/>
      <path d="m448.8 352.6c-5.6-10-3.4-14.4-2.6-15.7 2.2-3.6 6.1-2.3 19.1-8.2 3.3-1.5 6-2.9 6.5-2.2 0.6 0.8-2 3.8-4.2 5.9-5.2 4.9-9 4.5-12.8 7.7-2.2 1.8-4.9 5.3-6 12.5z"/>
    </g>
    <path d="m681.1 417.4c4.3 2.8 11 6.3 19.6 8.1 4.4 0.9 7.1 1 11 1.3 18.3 1.3 29.6 2.1 37.5 9 5.7 5 11.4 14.8 7.6 20.7-2.9 4.5-10.7 5.9-19.1 3.4-13.2-7.1-27.8-16.7-42.5-29.4-5.2-4.3-9.8-8.7-14.1-13.1z" fill="#ad1f23"/>
    <path d="m753.9 454.7c-1.8 3.1-8.5 3-12.8 1.8-4.8-1.3-6.4-4-12.6-9.4-10.3-9-17.8-12.3-17.1-13.7 0.4-0.9 3.4 0.3 9.5 0.9 9.4 0.9 11.4-1.2 16.2-0.4 10.7 2 19.5 16 16.8 20.8z" fill="#ca2026"/>
    <path d="m750.8 449.8c-0.3 0.1 1 2.7-0.2 4.2-1.4 1.8-5 0.9-5.1 1.4 0 0.2 1.1 0.6 2.1 0.7s3.5 0.4 4.5-1.1c1.4-2.1-0.9-5.3-1.3-5.2z" fill="#fff"/>
    <path d="m637.8 176.3c0.6 4.1-4.7 7.9-7.5 7.2-1.1-0.3-1.1-1.1-3.8-3.6-2.6-2.5-3.5-2.6-3.6-3.5-0.2-2.1 3.6-5.1 7.5-5.1 2.9-0.1 6.9 1.7 7.4 5z" fill="#f9f9fa"/>
  </g>
</svg>
