<svg width="512" height="512" version="1.1" viewBox="0 0 32 32" xmlns="http://www.w3.org/2000/svg">
  <defs>
    <clipPath id="clipPath926">
      <circle cx="16" cy="16" r="16" fill="#000" stroke-linecap="round" stroke-linejoin="round" stroke-width=".3125"/>
    </clipPath>
  </defs>
  <path transform="scale(.0625)" d="m167.63 294.53c-11.295-1.5348-18.536-3.0924-27.993-6.0218-14.123-4.3749-24.73-9.9864-37.395-19.784l-5.9004-4.5645v-55.799h75.85l2.5295 1.8662c3.3067 2.4396 6.3081 2.4396 7.9066 0 1.2219-1.8649 1.2311-1.8662 13.454-1.8662h12.231v-77.826l4.6654 0.52116c5.922 0.66153 12.691 2.9356 24.388 8.1938 5.0998 2.2924 9.7597 4.1679 10.355 4.1679 2.4713 0-1.1422-2.423-10.576-7.092-5.3888-2.6669-9.294-4.8491-8.6781-4.8493 0.61584-2e-4 4.5231 0.82417 8.6827 1.8319 25.544 6.1885 47.043 23.121 62.792 49.452l3.919 6.5524v19.048h8.0476l1.7219 6.1584c1.2469 4.4594 1.8042 8.755 2.0202 15.57 0.27527 8.685 0.1546 9.7679-1.562 14.018-3.1007 7.6765-6.5593 12.766-13.223 19.457-10.224 10.267-23.027 17.963-38.442 23.11-9.24 3.0853-26.591 6.8833-37.67 8.2457-9.0968 1.1187-47.974 0.85305-57.125-0.39028zm1.4043-15.71c2.6423-3.8884 9.34-8.6394 18.75-13.3 11.599-5.7451 16.721-7.3385 23.887-7.4307 4.8966-0.063 6.5532 0.23253 9.2016 1.6417 6.7072 3.5689 9.2222 0.0334 2.8006-3.9368-3.0846-1.9071-4.581-2.3109-9.3309-2.5179-8.1285-0.35427-15.278 1.4015-25.268 6.2052-17.104 8.2248-27.236 17.085-23.998 20.986 1.3068 1.5746 1.9508 1.3066 3.9577-1.6468zm100.07-68.948c1.7829-0.67786 1.9148-1.0604 1.9148-5.5545 0-3.0559-0.34229-5.0381-0.93309-5.4033-0.51319-0.31722-10.59-0.58898-22.394-0.60391-16.354-0.0207-21.461 0.18864-21.461 0.87969-7.5e-4 2.2742 3.4362 2.7482 22.207 3.0624l18.848 0.3155v2.1498c0 2.749-1.2853 2.7723-6.0231 0.10906-2.7661-1.5549-3.8378-1.8334-4.5014-1.1699-1.2819 1.2819-0.36009 2.9065 2.8366 4.999 3.0173 1.9751 6.3781 2.405 9.5054 1.216z" fill="none" stroke-linecap="round" stroke-linejoin="round" stroke-width="3.7324"/>
  <g clip-path="url(#clipPath926)">
    <path d="m0 0h32v32h-32z" fill="#f00"/>
    <path d="m13 6h6v7h7v6h-7v7h-6v-7h-7v-6h7z" fill="#fff"/>
    <g fill="#333" stroke-linecap="round" stroke-linejoin="round">
      <path transform="scale(.0625)" d="m111.57 284.07c-7.6308 0.18845-14.649 3.8542-21.601 6.6392-16.037 7.3699-29.025 20.032-39.799 33.77-11.595 16.798-20.836 35.082-30.444 53.053-5.9673 11.307-11.627 22.827-15.774 34.906-1.7291 5.3642-5.3178 10.391-4.4511 16.262v82.501c1.9224 2.2378 6.1126 0.4052 8.9175 1 13.555-0.14776 27.24 0.29477 40.715-0.22028 0.9882-2.517-0.49495-5.8178-0.43272-8.6632-1.7028-19.388-3.1695-38.807-4.5408-58.217-0.0338-8.6668 5.6072-15.939 9.0412-23.522 9.2806-17.354 18.354-34.916 28.707-51.675 0.39655-1.0544 2.045-1.5756 1.2206 3e-3 -6.8727 15.198-16.262 29.326-23.701 44.341-4.4994 9.1302-9.7597 18.003-13.255 27.566 0.27718 13.594 2.1367 27.106 2.9044 40.687 0.90971 9.9281 1.3607 20.038 3.1191 29.796 3.7504 1.0359 8.2882 0.12426 12.33 0.432h154.79c2.2082-1.7971 1.9414-5.616 3.1425-8.2236 6.1949-20.481 9.6577-41.666 12.604-62.82 1.6514-15.226 1.2916-30.601 2.7412-45.831 0.4307-2.1929 0.87884 1.934 0.91134 2.4866 1.0401 9.2562-0.65726 18.824 1.6371 27.945 2.1659 6.7603 6.999 13.523 14.508 14.599 8.3557 2.1541 16.277-3.0215 22.978-7.3554 9.5844-5.8574 15.741-15.521 20.953-25.176 11.183-20.773 21.992-41.766 32.147-63.062 0.55132-2.0804 3.159-5.2613 0.94049-7.0625-4.5326-1.3977-9.5159-1.911-13.21-5.2206-1.6416-1.1118-4.3784-3.6559-5.7511-0.86289-7.6702 11.567-13.82 24.079-20.205 36.384-5.2097 10.33-9.5785 21.479-18.623 29.039-1.913 2.4132-5.4938 0.54954-8.0294-0.12019-2.5856-1.6184-0.50463-6.1796-1.1742-9.0062-0.13614-18.492 1.0944-36.983 0.75979-55.466-1.0853-9.276-6.531-18.095-15.065-22.242-10.97-6.0344-23.65-7.421-35.258-11.694-4.6162-2.1542-10.043-1.0129-14.972-1.5625-19.185-0.39467-38.529-0.86273-57.12-6.1325-7.5678-1.772-14.735-5.0262-22.12-7.2507-3.1821-7e-3 -6.3643-0.0474-9.5464-0.0254z" stroke-width="2.6392"/>
      <path transform="scale(.0625)" d="m336.81 265.83c-7.3667 4.1256-11.994 11.915-13.851 20.007-0.43397 3.0434-2.3192 6.2566-1.6938 9.2557 3.1625 2.5182 7.6008 4.5191 7.9515 9.1794 0.34405 1.0737 0.17528 3.6465-0.96701 3.7134-0.83193-4.2039-2.8067-8.7413-7.2031-10.253-2.6069-1.3346-6.1134-0.87061-7.4175 2.0402-3.6931 4.6146-2.4294 10.932-1.7402 16.33 0.6011 4.1643 2.4987 7.9425 4.8433 11.355 1.0429 4.8279 6.6057 6.9454 10.879 8.132 12.092 2.7097 26.524-6.3083 26.923-19.239 0.53614-6.4952-0.26963-14.894-6.9629-18.025-3.1209-1.3732-6.8018-2.2175-10.112-1.7103-1.2104 0.98356-2.3925 3.5348-3.835 3.7804 0.69889-6.9859 4.0743-13.561 5.0526-20.629 0.50291-4.3172 1.4015-9.0826-0.19175-13.232-0.3783-0.51538-1.0415-0.79823-1.6753-0.70516z" stroke-width="2.6392"/>
      <path transform="scale(.0625)" d="m182.3 127.75c-11.513 1.1746-22.94 3.4318-34.022 6.7771-16.639 5.1342-32.455 13.501-45.16 25.52-7.164 6.5756-14.187 13.648-18.446 22.524-5.7863 11.161-10.044 23.461-9.9095 36.167-0.04097 5.1079-0.34638 10.352 1.4287 15.244 3.571 11.006 10.054 21.014 18.248 29.145 6.9885 6.6984 15.123 12.096 23.446 16.983 17.955 10.281 38.724 14.097 59.09 15.975 8.4761 0.69123 16.997 0.19383 25.491 0.24468 9.2182-0.13534 18.489 0.0547 27.611-1.5219 17.7-2.7855 35.589-6.7857 51.343-15.653 13.272-7.4341 25.612-17.753 32.44-31.603 2.2368-4.0691 3.2476-8.6807 3.1732-13.308 0.15367-6.5505 0.20381-13.225-1.8155-19.538-6.6446-22.619-18.105-44.323-35.494-60.518-14.457-13.544-33.214-22.636-52.963-24.78-15.585-1.9909-29.533-3.0815-44.461-1.6572z" stroke-width="1.3196"/>
    </g>
    <path d="m3.0582 32c-1.84e-4 -0.02471-0.02408-0.23095-0.05313-0.45831-0.02904-0.22736-0.08597-0.90674-0.12651-1.5097-0.04054-0.603-0.09746-1.339-0.12648-1.6355-0.08846-0.90381-0.11499-0.78168 0.39122-1.8012 0.24433-0.4921 0.63821-1.2344 0.8753-1.6496 0.23709-0.41518 0.58095-1.0258 0.76414-1.357 0.23672-0.42792 0.35155-0.6021 0.39694-0.6021 0.19428 0 0.11117 0.17657-0.98131 2.0849-0.3649 0.63739-1.1109 2.1048-1.2288 2.4171-0.06129 0.16234-0.06152 0.19909-0.0047 0.77284 0.03278 0.33132 0.091659 1.0796 0.13084 1.6628 0.023112 0.344 0.045391 0.63951 0.068612 0.905 0.037062 0.42374 0.076523 0.77102 0.1256 1.117 0.012947 0.09127 0.0046 0.09885-0.10865 0.09885-0.074 0-0.1228-0.01783-0.123-0.04493zm10.677-0.01797c2.16e-4 -0.0346 0.02521-0.14378 0.05555-0.24264 0.33705-1.0983 0.45404-1.5788 0.57315-2.3545 0.0501-0.32621 0.13765-0.83574 0.19456-1.1323 0.09201-0.47945 0.14599-1.082 0.18031-2.013 0.0028-0.07907 0.01681-0.47539 0.03087-0.88068 0.02437-0.70223 0.02894-0.73689 0.09685-0.73689 0.10302 0 0.12193 0.15966 0.12435 1.0498 0.0019 0.70718 0.0082 0.77903 0.08654 0.99494 0.10362 0.28549 0.28457 0.57364 0.42139 0.67106 0.1516 0.10795 0.48846 0.21381 0.68036 0.21381 0.17993 0 0.46022-0.08403 0.72065-0.21604 0.25717-0.13036 0.76208-0.48794 0.94855-0.67177 0.32311-0.31854 0.78011-1.0724 1.3984-2.3067 0.32317-0.64513 0.73446-1.4492 0.91398-1.7869 0.36997-0.6959 0.63447-1.2902 0.60657-1.3629-0.0104-0.027-0.09661-0.05961-0.19168-0.07246-0.30077-0.04065-0.49734-0.12263-0.69154-0.2884-0.1037-0.08851-0.20355-0.15164-0.22191-0.14029-0.07635 0.04718-0.39806 0.56869-0.6029 0.97731-0.12083 0.24105-0.28719 0.5479-0.36969 0.6819-0.13146 0.21353-0.31714 0.58638-0.72102 1.4478-0.17108 0.36491-0.40216 0.69073-0.66277 0.93452l-0.23917 0.22374-0.18881-0.01565c-0.10385-0.0085-0.23266-0.04438-0.28625-0.0795l-0.09743-0.06385 0.0223-1.3713c0.01227-0.75422 0.03218-1.6576 0.04425-2.0076 0.02033-0.58981 0.01612-0.6554-0.05763-0.89822-0.10939-0.36014-0.19364-0.51299-0.40732-0.73892-0.31879-0.33707-0.80122-0.55979-1.7277-0.7976-0.29887-0.07671-0.60243-0.1495-0.67458-0.16175-0.07215-0.01225-0.18687-0.06006-0.25494-0.10625-0.12199-0.08278-0.14118-0.08429-1.3426-0.10486-1.1941-0.02044-1.5641-0.04977-2.3493-0.18625-0.54941-0.09551-1.284-0.29772-1.7199-0.47343-0.36008-0.14516-0.44577-0.16567-0.75768-0.1813-0.31526-0.01581-0.3937-0.0059-0.75729 0.09496-0.49416 0.13716-1.1765 0.44378-1.5714 0.70611-0.58281 0.38719-1.3574 1.1467-1.8206 1.7851-0.56116 0.77344-2.3685 4.1222-2.6087 4.8336-0.12462 0.36909-0.37426 1.0129-0.45699 1.1786l-0.05385 0.10783 0.01689-0.16176c0.05522-0.52877 0.28848-1.235 0.64639-1.9571 0.77674-1.567 1.9295-3.6315 2.3325-4.1773 0.34087-0.46163 1.1341-1.2616 1.5904-1.604 0.64922-0.4871 1.6361-0.91133 2.3635-1.016 0.09391-0.01352 0.1706-0.03487 0.17043-0.04744-1.84e-4 -0.01259-0.0999-0.08705-0.22162-0.16548-1.1222-0.7231-1.8194-1.5357-2.2063-2.5713-0.09186-0.2459-0.10203-0.32172-0.11578-0.86279-0.02314-0.91063 0.12324-1.5648 0.53356-2.3844 0.2719-0.54314 0.4769-0.82953 0.89466-1.2499 1.3144-1.3225 2.7504-1.9934 4.9979-2.3351 0.49012-0.074518 0.59591-0.077836 1.7731-0.055634 0.68855 0.012987 1.376 0.039781 1.5277 0.059539 2.1846 0.28458 4.0578 1.8194 5.0654 4.1503 0.20834 0.48198 0.42904 1.1331 0.50873 1.501 0.08217 0.37924 0.10072 0.9673 0.04186 1.3267-0.18391 1.1228-1.5263 2.4086-3.1632 3.0301-0.63964 0.24285-1.5829 0.45953-2.5184 0.57855-0.48348 0.06151-0.62706 0.10407-0.46351 0.13742 1.0793 0.22008 1.4578 0.33384 1.9411 0.58342 0.59532 0.30747 0.94711 0.8055 1.0429 1.4764 0.04099 0.28714 0.02718 0.91096-0.03928 1.7728-0.05281 0.68509-0.04743 2.1393 0.0081 2.1848 0.04392 0.036 0.14293 0.05628 0.23445 0.04798 0.07612-0.0069 0.3686-0.29705 0.51137-0.50734 0.14451-0.21284 0.45751-0.82184 0.64663-1.2582 0.06427-0.14828 0.20163-0.41518 0.30526-0.59311 0.10362-0.17794 0.29628-0.53642 0.42812-0.79663 0.13185-0.26022 0.34617-0.62351 0.47627-0.80732 0.20286-0.28661 0.23055-0.34381 0.19444-0.40164-0.02316-0.03708-0.08955-0.23186-0.14751-0.43282-0.14709-0.50994-0.14692-0.85357 6.68e-4 -1.1654 0.13358-0.28236 0.25196-0.40419 0.39275-0.40419 0.12335 0 0.1183 0.01112 0.2196-0.48321 0.10142-0.49486 0.27547-0.83692 0.57721-1.1344 0.28936-0.28524 0.57437-0.4525 0.67725-0.39744 0.12339 0.06604 0.15818 0.26152 0.13721 0.7711-0.01563 0.3797-0.04015 0.54078-0.1265 0.83052-0.05892 0.1977-0.10127 0.3692-0.09413 0.38111 0.0071 0.01192 0.11774 0.03143 0.24577 0.04339 0.15514 0.01449 0.30594 0.05868 0.45213 0.13247 0.38537 0.19453 0.5232 0.52743 0.49753 1.2016-0.01771 0.46529-0.09217 0.62669-0.45978 0.99674-0.21586 0.21729-0.30702 0.28363-0.4339 0.31579-0.43493 0.11023-0.44663 0.11953-0.57357 0.45586-0.06375 0.16893-0.56013 1.1914-1.103 2.2722-1.0458 2.082-1.4016 2.6915-1.7998 3.0834-0.26414 0.25995-0.85559 0.65269-1.2142 0.80627-0.25251 0.10814-0.3233 0.1227-0.59232 0.12187-0.23436-6.7e-4 -0.35536-0.02061-0.5194-0.08536-0.23583-0.09309-0.5086-0.32486-0.61513-0.52269-0.03756-0.06975-0.08478-0.12136-0.10492-0.1147-0.02015 0.0067-0.04703 0.18873-0.05972 0.40462-0.01269 0.21589-0.06543 0.60281-0.1172 0.85983-0.05176 0.25702-0.13421 0.7295-0.1832 1.05-0.10931 0.71495-0.18307 1.0504-0.3936 1.7901-0.23213 0.81528-0.25904 0.88033-0.36435 0.88033-0.05894 0-0.08677-0.02024-0.0865-0.06291zm7.4998-11.104c0.30746-0.10915 0.54919-0.3037 0.73273-0.58973 0.09886-0.15407 0.12126-0.23078 0.14615-0.50056 0.0712-0.77155-0.1664-1.1366-0.78526-1.2067l-0.2186-0.02473-0.09491 0.15034c-0.16125 0.25544-0.31009 0.11596-0.18547-0.17382 0.03067-0.07134 0.11588-0.34 0.18933-0.59701 0.11782-0.41226 0.13385-0.51598 0.1361-0.88068 0.0029-0.48536-0.0017-0.4891-0.31128-0.24955-0.30684 0.23741-0.50489 0.59096-0.6404 1.1432-0.05941 0.24213-0.09843 0.45577-0.08669 0.47475 0.01173 0.01898 0.08291 0.06593 0.15816 0.10432 0.07526 0.03839 0.17778 0.11848 0.22784 0.17797 0.15723 0.18685 0.17476 0.61391 0.02521 0.61391-0.05228 0-0.07224-0.03719-0.09167-0.17075-0.03644-0.25044-0.09699-0.34268-0.29613-0.45106-0.25932-0.14114-0.37913-0.13067-0.49418 0.04318-0.21344 0.32253-0.22674 0.55804-0.06616 1.1717 0.06264 0.23942 0.1082 0.34255 0.17523 0.39676 0.05495 0.04444 0.09058 0.11013 0.09058 0.16702 0 0.10867 0.19299 0.29607 0.38944 0.37815 0.33217 0.13879 0.65335 0.14624 0.99996 0.0232zm-6.9826-2.4895c1.7791-0.26531 2.8082-0.61599 3.8182-1.3011 0.73461-0.49831 1.3093-1.152 1.566-1.7815 0.1067-0.26157 0.11599-0.31843 0.13002-0.79562 0.01774-0.60355-0.04041-0.91896-0.30616-1.6608-0.90298-2.5206-2.6405-4.1932-4.8148-4.6348-0.54759-0.11122-0.70348-0.092527-0.35381 0.042417 0.45673 0.17627 1.2752 0.61525 1.2304 0.65998-0.0097 0.00966-0.24192-0.086049-0.51616-0.21268-1.172-0.54116-1.4667-0.61815-2.2557-0.58925-0.78379 0.02871-1.6331 0.22066-2.7368 0.61849-1.0408 0.37519-2.3079 1.079-2.8559 1.5863-0.12047 0.11154-0.22776 0.19407-0.23842 0.18341-0.04175-0.04174 0.13524-0.31298 0.29866-0.45769 0.09474-0.08389 0.30974-0.24448 0.47779-0.35687 0.97129-0.64957 1.9779-1.0974 3.3068-1.4713 0.69575-0.19575 0.64493-0.2368-0.13983-0.11295-1.396 0.22033-2.3324 0.54047-3.3528 1.1463-0.64985 0.38583-1.6146 1.2746-1.9553 1.8012-0.32769 0.50655-0.63029 1.2431-0.75326 1.8334-0.07832 0.37598-0.10762 1.1095-0.05714 1.431 0.09881 0.62937 0.57749 1.4789 1.1635 2.065 0.40005 0.40008 1.2585 0.98928 1.8693 1.283 0.74129 0.35644 1.7495 0.62064 2.8124 0.73702 0.73284 0.08023 0.82565 0.08349 2.0489 0.07203 0.90277-0.0084 1.2092-0.02458 1.614-0.08495zm-3.9343-0.94119c-0.12501-0.23359 0.45048-0.72913 1.3952-1.2013 0.62808-0.31394 0.99493-0.42374 1.4757-0.44167 0.45288-0.01689 0.60284 0.01954 0.86654 0.21057 0.15628 0.11321 0.17973 0.17714 0.09175 0.25016-0.04536 0.03763-0.09843 0.02298-0.30923-0.08546-0.23587-0.12133-0.27758-0.1309-0.57028-0.1309-0.40156 0-0.80359 0.11184-1.3596 0.37826-0.77815 0.37283-1.2945 0.73425-1.396 0.9771-0.05653 0.1353-0.13538 0.15289-0.19405 0.04327zm0.64518-4.3506c-0.2553-0.18113-0.46371-0.3989-0.46371-0.48454 0-0.16151 0.10524-0.12524 0.38249 0.13183 0.14984 0.13893 0.29088 0.24649 0.31342 0.23902 0.08386-0.02779 0.16681-0.59646 0.1019-0.69862-0.01531-0.02412-0.14684-0.06887-0.29225-0.09946-0.14542-0.03058-0.54107-0.14389-0.87923-0.25178-0.33816-0.10789-0.77659-0.2388-0.97429-0.2909-0.41004-0.10806-0.48527-0.1409-0.48527-0.21181 0-0.12007 0.03756-0.11213 1.4496 0.30666 0.39199 0.11626 0.84491 0.23849 1.0065 0.27162 0.35271 0.07232 0.41986 0.13137 0.41898 0.36842-8.49e-4 0.22052-0.09145 0.64059-0.16114 0.74696-0.0777 0.11858-0.22482 0.10892-0.41696-0.02741zm5.4674-0.01876c-0.16528-0.06531-0.39541-0.24298-0.39541-0.30527 0-0.10952 0.08986-0.11588 0.23945-0.01693 0.20576 0.13609 0.36114 0.18312 0.42631 0.12903 0.05583-0.04633 0.07067-0.20452 0.02566-0.2735-0.01869-0.02865-0.33117-0.03915-1.0688-0.03595-1.0853 0.0047-1.4368-0.02989-1.4813-0.1459-0.03551-0.09253 0.05318-0.10867 0.30498-0.05548 0.18787 0.03968 0.41794 0.04613 1.0325 0.0289 0.43495-0.01218 0.90527-0.03158 1.0452-0.04309 0.33922-0.02792 0.37472 0.0064 0.37472 0.36207 0 0.19212-0.01479 0.2749-0.05511 0.30836-0.06008 0.04986-0.36153 0.082-0.44814 0.04779z" fill="#ccc" stroke-width=".035946"/>
    <path d="m3.277 32.034 10.518 0.0093" fill="#ccc" stroke="#000" stroke-width=".0625px"/>
  </g>
</svg>
